<?xml version="1.0" encoding="UTF-8" standalone="no"?>
<svg
   xmlns:dc="http://purl.org/dc/elements/1.1/"
   xmlns:cc="http://creativecommons.org/ns#"
   xmlns:rdf="http://www.w3.org/1999/02/22-rdf-syntax-ns#"
   xmlns:svg="http://www.w3.org/2000/svg"
   xmlns="http://www.w3.org/2000/svg"
   xmlns:sodipodi="http://sodipodi.sourceforge.net/DTD/sodipodi-0.dtd"
   xmlns:inkscape="http://www.inkscape.org/namespaces/inkscape"
   version="1.1"
   width="569.736328125"
   height="376"
   id="svg400"
   sodipodi:docname="ezWH_DEPLOYMENT.svg"
   inkscape:version="0.92.4 (5da689c313, 2019-01-14)">
  <metadata
     id="metadata404">
    <rdf:RDF>
      <cc:Work
         rdf:about="">
        <dc:format>image/svg+xml</dc:format>
        <dc:type
           rdf:resource="http://purl.org/dc/dcmitype/StillImage" />
      </cc:Work>
    </rdf:RDF>
  </metadata>
  <sodipodi:namedview
     pagecolor="#ffffff"
     bordercolor="#666666"
     borderopacity="1"
     objecttolerance="10"
     gridtolerance="10"
     guidetolerance="10"
     inkscape:pageopacity="0"
     inkscape:pageshadow="2"
     inkscape:window-width="1366"
     inkscape:window-height="705"
     id="namedview402"
     showgrid="false"
     inkscape:zoom="0.62765957"
     inkscape:cx="284.86816"
     inkscape:cy="188"
     inkscape:window-x="-8"
     inkscape:window-y="-8"
     inkscape:window-maximized="1"
     inkscape:current-layer="layer1" />
  <defs
     id="defs2" />
  <g
     inkscape:groupmode="layer"
     id="layer1"
     inkscape:label="Layer 1">
    <rect
       style="fill:#ffffff;fill-opacity:1;stroke:#000000;stroke-width:0.99999994;stroke-miterlimit:4;stroke-dasharray:none;stroke-dashoffset:0;stroke-opacity:1"
       id="rect1212"
       width="602.2373"
       height="395.11865"
       x="-9.5593224"
       y="-1.5932204" />
  </g>
  <g
     id="g398">
    <g
       transform="translate(-534,-182) scale(1,1)"
       id="g84">
      <path
         fill="#C0C0C0"
         stroke="none"
         d="M 767 385 L 864.603515625 385 L 864.603515625 418 L 767 418"
         opacity="0.2"
         id="path82" />
    </g>
    <g
       transform="translate(-534,-182) scale(1,1)"
       id="g88">
      <path
         fill="#C0C0C0"
         stroke="none"
         d="M 767 385 L 777 375 L 874.603515625 375 L 864.603515625 385"
         opacity="0.2"
         id="path86" />
    </g>
    <g
       transform="translate(-534,-182) scale(1,1)"
       id="g92">
      <path
         fill="#C0C0C0"
         stroke="none"
         d="M 874.603515625 375 L 864.603515625 385 L 864.603515625 418 L 874.603515625 408"
         opacity="0.2"
         id="path90" />
    </g>
    <g
       transform="translate(-534,-182) scale(1,1)"
       id="g96">
      <path
         fill="#ffffff"
         stroke="none"
         d="M 760 378 L 857.603515625 378 L 857.603515625 411 L 760 411"
         id="path94" />
    </g>
    <g
       transform="translate(-534,-182) scale(1,1)"
       id="g100">
      <path
         fill="#ffffff"
         stroke="none"
         d="M 760 378 L 770 368 L 867.603515625 368 L 857.603515625 378"
         id="path98" />
    </g>
    <g
       transform="translate(-534,-182) scale(1,1)"
       id="g104">
      <path
         fill="#ffffff"
         stroke="none"
         d="M 867.603515625 368 L 857.603515625 378 L 857.603515625 411 L 867.603515625 401"
         id="path102" />
    </g>
    <g
       transform="translate(-534,-182) scale(1,1)"
       id="g108">
      <path
         fill="none"
         stroke="#000000"
         d="M 760 378 L 857.603515625 378 L 857.603515625 411 L 760 411 L 760 378"
         stroke-miterlimit="10"
         id="path106" />
    </g>
    <g
       transform="translate(-534,-182) scale(1,1)"
       id="g112">
      <path
         fill="none"
         stroke="#000000"
         d="M 760 378 L 770 368 L 867.603515625 368 L 857.603515625 378 L 760 378"
         stroke-miterlimit="10"
         id="path110" />
    </g>
    <g
       transform="translate(-534,-182) scale(1,1)"
       id="g116">
      <path
         fill="none"
         stroke="#000000"
         d="M 867.603515625 368 L 857.603515625 378 L 857.603515625 411 L 867.603515625 401 L 867.603515625 368"
         stroke-miterlimit="10"
         id="path114" />
    </g>
    <g
       transform="translate(-534,-182) scale(1,1)"
       id="g124">
      <g
         id="g122">
        <path
           fill="none"
           stroke="none"
           id="path118" />
        <text
           fill="#000000"
           stroke="none"
           font-family="Arial"
           font-size="13px"
           font-style="normal"
           font-weight="bold"
           text-decoration="none"
           x="767.75634765625"
           y="397.5"
           id="text120">Internal server</text>
      </g>
    </g>
    <g
       transform="translate(-534,-182) scale(1,1)"
       id="g128">
      <path
         fill="#C0C0C0"
         stroke="none"
         d="M 972.804052734375 279 L 1000.244052734375 279 L 1012.004052734375 290.76 L 1012.004052734375 328 L 972.804052734375 328"
         opacity="0.2"
         id="path126" />
    </g>
    <g
       transform="translate(-534,-182) scale(1,1)"
       id="g132">
      <path
         fill="#ffffff"
         stroke="none"
         d="M 965.804052734375 272 L 993.244052734375 272 L 1005.004052734375 283.76 L 1005.004052734375 321 L 965.804052734375 321"
         id="path130" />
    </g>
    <g
       transform="translate(-534,-182) scale(1,1)"
       id="g136">
      <path
         fill="none"
         stroke="#000000"
         d="M 965.804052734375 272 L 993.244052734375 272 L 1005.004052734375 283.76 L 1005.004052734375 321 L 965.804052734375 321 L 965.804052734375 272"
         stroke-miterlimit="10"
         id="path134" />
    </g>
    <g
       transform="translate(-534,-182) scale(1,1)"
       id="g140">
      <path
         fill="none"
         stroke="#000000"
         d="M 993.244052734375 272 L 993.244052734375 283.76 L 1005.004052734375 283.76 L 993.244052734375 272"
         stroke-miterlimit="10"
         id="path138" />
    </g>
    <g
       transform="translate(-534,-182) scale(1,1)"
       id="g148">
      <g
         id="g146">
        <path
           fill="none"
           stroke="none"
           id="path142" />
        <text
           fill="#000000"
           stroke="none"
           font-family="Arial"
           font-size="13px"
           font-style="normal"
           font-weight="bold"
           text-decoration="none"
           x="957.5791015625"
           y="340.5"
           id="text144">Database</text>
      </g>
    </g>
    <g
       transform="translate(-534,-182) scale(1,1)"
       id="g152">
      <path
         fill="#C0C0C0"
         stroke="none"
         d="M 806.80966796875 199 L 834.24966796875 199 L 846.00966796875 210.76000000000002 L 846.00966796875 248 L 806.80966796875 248"
         opacity="0.2"
         id="path150" />
    </g>
    <g
       transform="translate(-534,-182) scale(1,1)"
       id="g156">
      <path
         fill="#ffffff"
         stroke="none"
         d="M 799.80966796875 192 L 827.24966796875 192 L 839.00966796875 203.76000000000002 L 839.00966796875 241 L 799.80966796875 241"
         id="path154" />
    </g>
    <g
       transform="translate(-534,-182) scale(1,1)"
       id="g160">
      <path
         fill="none"
         stroke="#000000"
         d="M 799.80966796875 192 L 827.24966796875 192 L 839.00966796875 203.76000000000002 L 839.00966796875 241 L 799.80966796875 241 L 799.80966796875 192"
         stroke-miterlimit="10"
         id="path158" />
    </g>
    <g
       transform="translate(-534,-182) scale(1,1)"
       id="g164">
      <path
         fill="none"
         stroke="#000000"
         d="M 827.24966796875 192 L 827.24966796875 203.76000000000002 L 839.00966796875 203.76000000000002 L 827.24966796875 192"
         stroke-miterlimit="10"
         id="path162" />
    </g>
    <g
       transform="translate(-534,-182) scale(1,1)"
       id="g172">
      <g
         id="g170">
        <path
           fill="none"
           stroke="none"
           id="path166" />
        <text
           fill="#000000"
           stroke="none"
           font-family="Arial"
           font-size="13px"
           font-style="normal"
           font-weight="bold"
           text-decoration="none"
           x="753.52734375"
           y="260.5"
           id="text168">Warehouse application</text>
      </g>
    </g>
    <g
       transform="translate(-534,-182) scale(1,1)"
       id="g176">
      <path
         fill="none"
         stroke="#000000"
         d="M 818 267 L 815 367"
         stroke-miterlimit="10"
         stroke-dasharray="3"
         id="path174" />
    </g>
    <g
       transform="translate(-534,-182) scale(1,1)"
       id="g180">
      <path
         fill="none"
         stroke="#000000"
         d="M 811.0971183914476 356.7156665189414 L 815 367 L 819.5123678928647 356.9681240039839"
         stroke-miterlimit="10"
         id="path178" />
    </g>
    <g
       transform="translate(-534,-182) scale(1,1)"
       id="g188">
      <g
         id="g186">
        <path
           fill="none"
           stroke="none"
           id="path182" />
        <text
           fill="#000000"
           stroke="none"
           font-family="Arial"
           font-size="13px"
           font-style="normal"
           font-weight="normal"
           text-decoration="none"
           x="818.5"
           y="323.5"
           id="text184">«deploy»</text>
      </g>
    </g>
    <g
       transform="translate(-534,-182) scale(1,1)"
       id="g192">
      <path
         fill="none"
         stroke="#000000"
         d="M 951 325 L 863 367"
         stroke-miterlimit="10"
         stroke-dasharray="3"
         id="path190" />
    </g>
    <g
       transform="translate(-534,-182) scale(1,1)"
       id="g196">
      <path
         fill="none"
         stroke="#000000"
         d="M 870.3584575109536 358.82362531072044 L 863 367 L 873.9847851933799 366.4216452167567"
         stroke-miterlimit="10"
         id="path194" />
    </g>
    <g
       transform="translate(-534,-182) scale(1,1)"
       id="g204">
      <g
         id="g202">
        <path
           fill="none"
           stroke="none"
           id="path198" />
        <text
           fill="#000000"
           stroke="none"
           font-family="Arial"
           font-size="13px"
           font-style="normal"
           font-weight="normal"
           text-decoration="none"
           x="892.5"
           y="379.5"
           id="text200">«deploy»</text>
      </g>
    </g>
    <g
       transform="translate(-534,-182) scale(1,1)"
       id="g208">
      <path
         fill="#C0C0C0"
         stroke="none"
         d="M 607 521 L 766.00439453125 521 L 766.00439453125 554 L 607 554"
         opacity="0.2"
         id="path206" />
    </g>
    <g
       transform="translate(-534,-182) scale(1,1)"
       id="g212">
      <path
         fill="#C0C0C0"
         stroke="none"
         d="M 607 521 L 617 511 L 776.00439453125 511 L 766.00439453125 521"
         opacity="0.2"
         id="path210" />
    </g>
    <g
       transform="translate(-534,-182) scale(1,1)"
       id="g216">
      <path
         fill="#C0C0C0"
         stroke="none"
         d="M 776.00439453125 511 L 766.00439453125 521 L 766.00439453125 554 L 776.00439453125 544"
         opacity="0.2"
         id="path214" />
    </g>
    <g
       transform="translate(-534,-182) scale(1,1)"
       id="g220">
      <path
         fill="#ffffff"
         stroke="none"
         d="M 600 514 L 759.00439453125 514 L 759.00439453125 547 L 600 547"
         id="path218" />
    </g>
    <g
       transform="translate(-534,-182) scale(1,1)"
       id="g224">
      <path
         fill="#ffffff"
         stroke="none"
         d="M 600 514 L 610 504 L 769.00439453125 504 L 759.00439453125 514"
         id="path222" />
    </g>
    <g
       transform="translate(-534,-182) scale(1,1)"
       id="g228">
      <path
         fill="#ffffff"
         stroke="none"
         d="M 769.00439453125 504 L 759.00439453125 514 L 759.00439453125 547 L 769.00439453125 537"
         id="path226" />
    </g>
    <g
       transform="translate(-534,-182) scale(1,1)"
       id="g232">
      <path
         fill="none"
         stroke="#000000"
         d="M 600 514 L 759.00439453125 514 L 759.00439453125 547 L 600 547 L 600 514"
         stroke-miterlimit="10"
         id="path230" />
    </g>
    <g
       transform="translate(-534,-182) scale(1,1)"
       id="g236">
      <path
         fill="none"
         stroke="#000000"
         d="M 600 514 L 610 504 L 769.00439453125 504 L 759.00439453125 514 L 600 514"
         stroke-miterlimit="10"
         id="path234" />
    </g>
    <g
       transform="translate(-534,-182) scale(1,1)"
       id="g240">
      <path
         fill="none"
         stroke="#000000"
         d="M 769.00439453125 504 L 759.00439453125 514 L 759.00439453125 547 L 769.00439453125 537 L 769.00439453125 504"
         stroke-miterlimit="10"
         id="path238" />
    </g>
    <g
       transform="translate(-534,-182) scale(1,1)"
       id="g248">
      <g
         id="g246">
        <path
           fill="none"
           stroke="none"
           id="path242" />
        <text
           fill="#000000"
           stroke="none"
           font-family="Arial"
           font-size="13px"
           font-style="normal"
           font-weight="bold"
           text-decoration="none"
           x="609.549560546875"
           y="533.5"
           id="text244">Employee mobile device</text>
      </g>
    </g>
    <g
       transform="translate(-534,-182) scale(1,1)"
       id="g252">
      <path
         fill="none"
         stroke="#000000"
         d="M 707 503 L 792 413"
         stroke-miterlimit="10"
         id="path250" />
    </g>
    <g
       transform="translate(-534,-182) scale(1,1)"
       id="g260">
      <g
         id="g258">
        <path
           fill="none"
           stroke="none"
           id="path254" />
        <text
           fill="#000000"
           stroke="none"
           font-family="Arial"
           font-size="13px"
           font-style="normal"
           font-weight="normal"
           text-decoration="none"
           x="692.5"
           y="438.5"
           id="text256">+internet</text>
      </g>
    </g>
    <g
       transform="translate(-534,-182) scale(1,1)"
       id="g264">
      <path
         fill="#C0C0C0"
         stroke="none"
         d="M 586.45908203125 399 L 613.89908203125 399 L 625.65908203125 410.76 L 625.65908203125 448 L 586.45908203125 448"
         opacity="0.2"
         id="path262" />
    </g>
    <g
       transform="translate(-534,-182) scale(1,1)"
       id="g268">
      <path
         fill="#ffffff"
         stroke="none"
         d="M 579.45908203125 392 L 606.89908203125 392 L 618.65908203125 403.76 L 618.65908203125 441 L 579.45908203125 441"
         id="path266" />
    </g>
    <g
       transform="translate(-534,-182) scale(1,1)"
       id="g272">
      <path
         fill="none"
         stroke="#000000"
         d="M 579.45908203125 392 L 606.89908203125 392 L 618.65908203125 403.76 L 618.65908203125 441 L 579.45908203125 441 L 579.45908203125 392"
         stroke-miterlimit="10"
         id="path270" />
    </g>
    <g
       transform="translate(-534,-182) scale(1,1)"
       id="g276">
      <path
         fill="none"
         stroke="#000000"
         d="M 606.89908203125 392 L 606.89908203125 403.76 L 618.65908203125 403.76 L 606.89908203125 392"
         stroke-miterlimit="10"
         id="path274" />
    </g>
    <g
       transform="translate(-534,-182) scale(1,1)"
       id="g284">
      <g
         id="g282">
        <path
           fill="none"
           stroke="none"
           id="path278" />
        <text
           fill="#000000"
           stroke="none"
           font-family="Arial"
           font-size="13px"
           font-style="normal"
           font-weight="bold"
           text-decoration="none"
           x="575.220458984375"
           y="460.5"
           id="text280">Browser</text>
      </g>
    </g>
    <g
       transform="translate(-534,-182) scale(1,1)"
       id="g288">
      <path
         fill="none"
         stroke="#000000"
         d="M 633 467 L 665 503"
         stroke-miterlimit="10"
         stroke-dasharray="3"
         id="path286" />
    </g>
    <g
       transform="translate(-534,-182) scale(1,1)"
       id="g292">
      <path
         fill="none"
         stroke="#000000"
         d="M 655.1020535207979 498.2009734846691 L 665 503 L 661.3945191168192 492.6076707326501"
         stroke-miterlimit="10"
         id="path290" />
    </g>
    <g
       transform="translate(-534,-182) scale(1,1)"
       id="g300">
      <g
         id="g298">
        <path
           fill="none"
           stroke="none"
           id="path294" />
        <text
           fill="#000000"
           stroke="none"
           font-family="Arial"
           font-size="13px"
           font-style="normal"
           font-weight="normal"
           text-decoration="none"
           x="644.5"
           y="471.5"
           id="text296">«deploy»</text>
      </g>
    </g>
    <g
       transform="translate(-534,-182) scale(1,1)"
       id="g304">
      <path
         fill="#C0C0C0"
         stroke="none"
         d="M 903 497 L 994.08447265625 497 L 994.08447265625 530 L 903 530"
         opacity="0.2"
         id="path302" />
    </g>
    <g
       transform="translate(-534,-182) scale(1,1)"
       id="g308">
      <path
         fill="#C0C0C0"
         stroke="none"
         d="M 903 497 L 913 487 L 1004.08447265625 487 L 994.08447265625 497"
         opacity="0.2"
         id="path306" />
    </g>
    <g
       transform="translate(-534,-182) scale(1,1)"
       id="g312">
      <path
         fill="#C0C0C0"
         stroke="none"
         d="M 1004.08447265625 487 L 994.08447265625 497 L 994.08447265625 530 L 1004.08447265625 520"
         opacity="0.2"
         id="path310" />
    </g>
    <g
       transform="translate(-534,-182) scale(1,1)"
       id="g316">
      <path
         fill="#ffffff"
         stroke="none"
         d="M 896 490 L 987.08447265625 490 L 987.08447265625 523 L 896 523"
         id="path314" />
    </g>
    <g
       transform="translate(-534,-182) scale(1,1)"
       id="g320">
      <path
         fill="#ffffff"
         stroke="none"
         d="M 896 490 L 906 480 L 997.08447265625 480 L 987.08447265625 490"
         id="path318" />
    </g>
    <g
       transform="translate(-534,-182) scale(1,1)"
       id="g324">
      <path
         fill="#ffffff"
         stroke="none"
         d="M 997.08447265625 480 L 987.08447265625 490 L 987.08447265625 523 L 997.08447265625 513"
         id="path322" />
    </g>
    <g
       transform="translate(-534,-182) scale(1,1)"
       id="g328">
      <path
         fill="none"
         stroke="#000000"
         d="M 896 490 L 987.08447265625 490 L 987.08447265625 523 L 896 523 L 896 490"
         stroke-miterlimit="10"
         id="path326" />
    </g>
    <g
       transform="translate(-534,-182) scale(1,1)"
       id="g332">
      <path
         fill="none"
         stroke="#000000"
         d="M 896 490 L 906 480 L 997.08447265625 480 L 987.08447265625 490 L 896 490"
         stroke-miterlimit="10"
         id="path330" />
    </g>
    <g
       transform="translate(-534,-182) scale(1,1)"
       id="g336">
      <path
         fill="none"
         stroke="#000000"
         d="M 997.08447265625 480 L 987.08447265625 490 L 987.08447265625 523 L 997.08447265625 513 L 997.08447265625 480"
         stroke-miterlimit="10"
         id="path334" />
    </g>
    <g
       transform="translate(-534,-182) scale(1,1)"
       id="g344">
      <g
         id="g342">
        <path
           fill="none"
           stroke="none"
           id="path338" />
        <text
           fill="#000000"
           stroke="none"
           font-family="Arial"
           font-size="13px"
           font-style="normal"
           font-weight="bold"
           text-decoration="none"
           x="902.302734375"
           y="509.5"
           id="text340">Employee PC</text>
      </g>
    </g>
    <g
       transform="translate(-534,-182) scale(1,1)"
       id="g348">
      <path
         fill="none"
         stroke="#000000"
         d="M 841 413 L 920 479"
         stroke-miterlimit="10"
         id="path346" />
    </g>
    <g
       transform="translate(-534,-182) scale(1,1)"
       id="g356">
      <g
         id="g354">
        <path
           fill="none"
           stroke="none"
           id="path350" />
        <text
           fill="#000000"
           stroke="none"
           font-family="Arial"
           font-size="13px"
           font-style="normal"
           font-weight="normal"
           text-decoration="none"
           x="878.5"
           y="440.5"
           id="text352">+internet</text>
      </g>
    </g>
    <g
       transform="translate(-534,-182) scale(1,1)"
       id="g360">
      <path
         fill="#C0C0C0"
         stroke="none"
         d="M 1050.2681640625 375 L 1077.7081640625001 375 L 1089.4681640625001 386.76 L 1089.4681640625001 424 L 1050.2681640625 424"
         opacity="0.2"
         id="path358" />
    </g>
    <g
       transform="translate(-534,-182) scale(1,1)"
       id="g364">
      <path
         fill="#ffffff"
         stroke="none"
         d="M 1043.2681640625 368 L 1070.7081640625 368 L 1082.4681640625 379.75999999999993 L 1082.4681640625 417 L 1043.2681640625 417"
         id="path362" />
    </g>
    <g
       transform="translate(-534,-182) scale(1,1)"
       id="g368">
      <path
         fill="none"
         stroke="#000000"
         d="M 1043.2681640625 368 L 1070.7081640625 368 L 1082.4681640625 379.75999999999993 L 1082.4681640625 417 L 1043.2681640625 417 L 1043.2681640625 368"
         stroke-miterlimit="10"
         id="path366" />
    </g>
    <g
       transform="translate(-534,-182) scale(1,1)"
       id="g372">
      <path
         fill="none"
         stroke="#000000"
         d="M 1070.7081640625 368 L 1070.7081640625 379.75999999999993 L 1082.4681640625 379.75999999999993 L 1070.7081640625 368"
         stroke-miterlimit="10"
         id="path370" />
    </g>
    <g
       transform="translate(-534,-182) scale(1,1)"
       id="g380">
      <g
         id="g378">
        <path
           fill="none"
           stroke="none"
           id="path374" />
        <text
           fill="#000000"
           stroke="none"
           font-family="Arial"
           font-size="13px"
           font-style="normal"
           font-weight="bold"
           text-decoration="none"
           x="1039.029541015625"
           y="436.5"
           id="text376">Browser</text>
      </g>
    </g>
    <g
       transform="translate(-534,-182) scale(1,1)"
       id="g384">
      <path
         fill="none"
         stroke="#000000"
         d="M 1031 431 L 974 479"
         stroke-miterlimit="10"
         stroke-dasharray="3"
         id="path382" />
    </g>
    <g
       transform="translate(-534,-182) scale(1,1)"
       id="g388">
      <path
         fill="none"
         stroke="#000000"
         d="M 979.0620429422621 469.2339505811872 L 974 479 L 984.4850446605765 475.67376512168556"
         stroke-miterlimit="10"
         id="path386" />
    </g>
    <g
       transform="translate(-534,-182) scale(1,1)"
       id="g396">
      <g
         id="g394">
        <path
           fill="none"
           stroke="none"
           id="path390" />
        <text
           fill="#000000"
           stroke="none"
           font-family="Arial"
           font-size="13px"
           font-style="normal"
           font-weight="normal"
           text-decoration="none"
           x="994.5"
           y="483.5"
           id="text392">«deploy»</text>
      </g>
    </g>
  </g>
</svg>
